<?xml version="1.0" encoding="UTF-8"?>
<svg version="1.1" xmlns="http://www.w3.org/2000/svg" width="1000" height="1000">
<path d="M0 0 C0.90363281 0.22993652 1.80726563 0.45987305 2.73828125 0.69677734 C35.10043996 9.16487554 68.55256883 26.28858446 86 56 C91.1822433 65.11986235 94.23018848 74.3983918 97 84.4375 C97.21310822 85.19678802 97.42621643 85.95607605 97.64578247 86.7383728 C101.83450739 101.68773714 105.24177209 116.7174793 108 132 C108.17644043 132.91297852 108.35288086 133.82595703 108.53466797 134.76660156 C110.97487909 147.56985001 111.30228341 160.31810892 111.375 173.3125 C111.3830365 174.11243378 111.391073 174.91236755 111.39935303 175.73654175 C111.72108234 217.91503786 90.94323664 256.16714005 70.8125 292.125 C70.28422607 293.0725415 69.75595215 294.02008301 69.21166992 294.99633789 C68.71513916 295.86637451 68.2186084 296.73641113 67.70703125 297.6328125 C67.2788208 298.38449707 66.85061035 299.13618164 66.40942383 299.91064453 C64.83753945 302.24083447 63.04061479 304.07503547 61 306 C60.90501221 304.8346875 60.81002441 303.669375 60.7121582 302.46875 C56.68101559 253.5350698 52.27463758 201.72450247 28 158 C27.17435547 156.41058594 27.17435547 156.41058594 26.33203125 154.7890625 C21.97060815 146.72923549 16.42793104 140.43727397 10 134 C9.319375 133.30777344 8.63875 132.61554688 7.9375 131.90234375 C-1.33375489 123.11396672 -13.1562792 119.75631292 -25.3125 117 C-26.75971215 116.66168132 -28.20681295 116.32288603 -29.65380859 115.98364258 C-87.361425 100.13065299 -87.361425 100.13065299 -144.2421875 108.21484375 C-146.33103452 109.68191335 -148.15285507 111.23895081 -150 113 C-150.6084375 113.58007812 -151.216875 114.16015625 -151.84375 114.7578125 C-169.96152363 133.69237101 -182.04068414 159.89316034 -193.87109375 182.94921875 C-196.72241717 188.49506469 -199.67987638 193.97517774 -202.6875 199.4375 C-207.89459756 208.90478981 -212.9575337 218.44443757 -218 228 C-232.0923952 254.69979949 -232.0923952 254.69979949 -237.65039062 264.43652344 C-239.09373271 267.07267108 -239.09373271 267.07267108 -240.31835938 270.27441406 C-242.89837773 276.18235493 -245.09512518 280.19361732 -251.23808289 282.78526306 C-254.82359486 284.06796429 -258.45644347 285.10954278 -262.125 286.125 C-263.73534006 286.60950053 -265.34437302 287.09836428 -266.95214844 287.59130859 C-270.29487332 288.60701886 -273.64435434 289.59271172 -277.00292969 290.5546875 C-281.7549555 291.91877789 -286.47620357 293.37046706 -291.1953125 294.84375 C-307.33981671 299.84906646 -323.60643177 304.32296876 -340 308.4375 C-340.8499353 308.65082977 -341.69987061 308.86415955 -342.57556152 309.08395386 C-352.91506078 311.66236058 -363.26923586 314.19685419 -373.8671875 315.47241211 C-379.28174387 316.27445549 -382.13723941 318.42654287 -386.07519531 322.17456055 C-388.88822674 324.84237333 -391.98247865 327.05242662 -395.125 329.3125 C-395.76244141 329.77615967 -396.39988281 330.23981934 -397.05664062 330.7175293 C-400.9144332 333.5172795 -404.79901811 336.27813293 -408.69067383 339.03051758 C-416.15992056 344.3227878 -422.86819351 349.48916089 -428.80078125 356.48828125 C-431.11176791 359.12764968 -433.50954017 361.66369854 -435.92773438 364.2043457 C-447.70393011 376.61636765 -458.0275725 388.27456204 -463 405 C-465.125 405.4375 -465.125 405.4375 -468 405 C-472.79381735 400.77101553 -475.60210163 395.42064746 -478.0625 389.625 C-478.56946411 388.45360474 -478.56946411 388.45360474 -479.08666992 387.25854492 C-486.81902447 368.91243086 -491.48615467 348.92482694 -490.74609375 329 C-490.69450231 326.87506529 -490.64576061 324.75005982 -490.59960938 322.625 C-490.52561504 319.30533391 -490.43707206 315.98960138 -490.30053711 312.671875 C-489.26779455 300.2341451 -489.26779455 300.2341451 -493.08813477 288.87475586 C-495.63809067 286.84165413 -498.06918735 285.41026043 -501 284 C-504.41319489 281.08309956 -507.71663598 278.06201364 -511 275 C-512.12728516 273.95392578 -512.12728516 273.95392578 -513.27734375 272.88671875 C-529.12823932 257.64868733 -541.10062825 237.90897992 -548.25 217.1875 C-548.48412598 216.52596924 -548.71825195 215.86443848 -548.95947266 215.18286133 C-554.43603782 198.48031905 -554.4895368 181.65371946 -554.375 164.25 C-554.37101196 163.02933838 -554.36702393 161.80867676 -554.36291504 160.55102539 C-554.29369404 142.51688319 -553.75941008 124.84696046 -551 107 C-550.86078125 106.02514648 -550.7215625 105.05029297 -550.578125 104.04589844 C-547.32090764 81.43387332 -541.62450084 59.16342491 -533 38 C-532.73251953 37.32501465 -532.46503906 36.6500293 -532.18945312 35.95458984 C-526.56463459 21.83409491 -519.18477349 8.13356919 -510 -4 C-509.67 -4 -509.34 -4 -509 -4 C-508.92784775 -3.39533905 -508.8556955 -2.7906781 -508.78135681 -2.16769409 C-502.61030107 88.75733851 -502.61030107 88.75733851 -462.38671875 166.234375 C-460.14295769 168.00035819 -460.14295769 168.00035819 -458 169 C-457.81908813 167.93313965 -457.81908813 167.93313965 -457.63452148 166.84472656 C-456.97291108 163.87855324 -456.01062124 161.29079001 -454.84765625 158.484375 C-454.40542725 157.40986084 -453.96319824 156.33534668 -453.50756836 155.22827148 C-453.0306958 154.08044189 -452.55382324 152.9326123 -452.0625 151.75 C-451.06469479 149.31917842 -450.06730889 146.88818468 -449.0703125 144.45703125 C-447.56111526 140.78707049 -446.04888686 137.11837394 -444.53417969 133.45068359 C-443.16027969 130.11630121 -441.7979111 126.77740416 -440.4375 123.4375 C-440.02056885 122.43493164 -439.6036377 121.43236328 -439.17407227 120.39941406 C-436.71220271 114.33173473 -435.02029819 108.47132756 -434 102 C-427.20072139 102.20074892 -424.34295297 104.83050905 -419.6875 109.5625 C-418.37091091 110.84493843 -417.05189989 112.12489516 -415.73046875 113.40234375 C-415.09415527 114.02222168 -414.4578418 114.64209961 -413.80224609 115.28076172 C-405.6145587 123.09134077 -397.19763437 128.57270298 -386.4375 131.9375 C-384.84587756 132.44904028 -383.25473638 132.96208018 -381.6640625 133.4765625 C-380.8793457 133.72954102 -380.09462891 133.98251953 -379.28613281 134.24316406 C-374.85055376 135.71158515 -370.48440845 137.37035139 -366.11328125 139.01953125 C-362.74805558 140.07934511 -359.49925519 140.59065317 -356 141 C-355.12959409 155.0508382 -367.66597395 168.66627406 -375.31640625 179.640625 C-383.57802594 191.5278592 -383.57802594 191.5278592 -389.4375 204.6875 C-389.69208984 205.40099609 -389.94667969 206.11449219 -390.20898438 206.84960938 C-390.81813731 208.56213366 -391.41099235 210.28044287 -392 212 C-385.77647548 212.91351149 -379.72387226 213.17395884 -373.4375 213.15625 C-372.40592773 213.15451782 -371.37435547 213.15278564 -370.31152344 213.15100098 C-356.52316964 213.05867736 -342.76466547 212.25448258 -329 211.5 C-326.26699489 211.35417785 -323.53388996 211.21027189 -320.80078125 211.06640625 C-314.20015531 210.7175312 -307.59993678 210.36166692 -301 210 C-300.70826904 209.07993164 -300.41653809 208.15986328 -300.1159668 207.21191406 C-298.7972481 203.41645067 -296.89153638 200.16193341 -294.8125 196.75 C-293.90628644 195.23643414 -293.00142733 193.72205681 -292.09765625 192.20703125 C-291.60281738 191.37896973 -291.10797852 190.5509082 -290.59814453 189.69775391 C-287.60113333 184.63863783 -284.6808804 179.5351101 -281.75 174.4375 C-275.09144585 162.87411283 -268.38196421 151.34114725 -261.6484375 139.82128906 C-258.76278557 134.88251631 -255.88154051 129.94117235 -253 125 C-253.66 125.33 -254.32 125.66 -255 126 C-258.03033348 126.10460034 -261.03192499 126.14090499 -264.0625 126.125 C-265.02494629 126.12089111 -265.98739258 126.11678223 -266.97900391 126.11254883 C-349.81724754 125.51095921 -349.81724754 125.51095921 -365 114 C-366.99920686 110.00158629 -366.45358212 106.40956238 -365.12890625 102.29296875 C-357.2908641 82.68501413 -343.85473171 65.86779542 -330.46484375 49.76904297 C-328.38897534 47.26208588 -326.35452252 44.7220526 -324.3125 42.1875 C-319.74525472 36.6015383 -314.90267028 31.29160864 -310 26 C-305.58649927 26.97045396 -301.17683912 27.9510526 -296.78125 29 C-241.44069461 42.06660916 -187.46684995 25.68977766 -133.73239136 12.60687256 C-115.85550322 8.25728858 -97.96749053 3.96141098 -80 0 C-79.31047241 -0.15253235 -78.62094482 -0.3050647 -77.91052246 -0.46221924 C-51.1683243 -6.33827477 -26.60334334 -6.81733173 0 0 Z " fill="#FFFFFF" transform="translate(724,344)"/>
<path d="M0 0 C1.61132812 1.13549805 1.61132812 1.13549805 3.03125 2.76171875 C3.58393555 3.37587646 4.13662109 3.99003418 4.70605469 4.62280273 C5.29805664 5.30415283 5.89005859 5.98550293 6.5 6.6875 C7.82475285 8.15409473 9.15308315 9.61746343 10.484375 11.078125 C11.20302734 11.86896484 11.92167969 12.65980469 12.66210938 13.47460938 C16.91590243 18.06955877 21.32973169 22.50340848 25.75 26.9375 C26.60013672 27.80012451 27.45027344 28.66274902 28.32617188 29.55151367 C34.23224246 35.46953756 40.44024792 40.82055522 47 46 C48.0204541 46.81730591 48.0204541 46.81730591 49.06152344 47.65112305 C84.63262394 75.92063847 122.35451619 82.64793768 167.10473633 82.28125 C170.95859489 82.24982801 174.81204086 82.24022803 178.66601562 82.234375 C191.80642247 82.19268649 204.89159635 81.94391921 218 81 C217.51512291 85.44441383 217.06515786 89.50891258 215.46875 93.70703125 C215.15752197 94.53130615 214.84629395 95.35558105 214.52563477 96.20483398 C214.18717529 97.06536377 213.84871582 97.92589355 213.5 98.8125 C213.14542725 99.72394775 212.79085449 100.63539551 212.42553711 101.57446289 C195.164926 145.21456972 166.72653099 173.48226867 123.74365234 192.234375 C54.69784069 221.41329346 -30.88749102 193.65449599 -97.4375 166.9375 C-115.88429988 159.60605199 -138.04178799 157.20927149 -156.75390625 165.171875 C-168.24236552 170.590013 -172.89048581 178.4570189 -177.11328125 190.05859375 C-180.2116593 200.88089056 -180.88916253 213.6151247 -176 224 C-173.35728823 228.46057713 -170.25133953 231.91140326 -166.25 235.1875 C-162.11564511 238.591726 -161.19754466 241.15624982 -160.625 246.5 C-161.54237251 273.81731469 -186.863472 305.43366579 -204 325 C-221.98233099 318.62612583 -235.25795747 291.12249509 -243.1875 274.75 C-252.14886084 255.52732106 -257.99972223 233.37917587 -258.23828125 212.1171875 C-258.24816574 211.38905853 -258.25805023 210.66092957 -258.26823425 209.91073608 C-258.59805204 179.28875199 -254.03884702 150.96891669 -238.98242188 123.77636719 C-238.01228847 122.02221941 -237.07617739 120.24939497 -236.140625 118.4765625 C-227.19091761 102.01945593 -215.18726657 88.18726657 -202 75 C-201.36320312 74.31679687 -200.72640625 73.63359375 -200.0703125 72.9296875 C-186.12450003 58.19977313 -169.32363522 49.47733763 -150.44921875 42.71875 C-149.35410477 42.32626068 -148.25899078 41.93377136 -147.13069153 41.52938843 C-135.91637787 37.55299412 -124.58681934 34.02773089 -113.1875 30.625 C-112.10100159 30.29827301 -111.01450317 29.97154602 -109.89508057 29.63491821 C-79.8113593 20.59523083 -49.53316264 12.20076997 -19.23944092 3.89584351 C-17.10918818 3.30673781 -14.9821126 2.70599792 -12.85870361 2.09268188 C-11.89293396 1.81693329 -10.92716431 1.54118469 -9.93212891 1.25708008 C-9.0963028 1.01371414 -8.26047668 0.77034821 -7.39932251 0.51960754 C-4.84066462 -0.03450635 -2.61015832 -0.1702602 0 0 Z " fill="#FFFFFF" transform="translate(533,110)"/>
<path d="M0 0 C3.13931267 0.45801273 4.82354901 1.43407585 7.06640625 3.6328125 C7.91005737 4.45930298 7.91005737 4.45930298 8.77075195 5.30249023 C9.36202881 5.90391846 9.95330566 6.50534668 10.5625 7.125 C11.18020264 7.75027588 11.79790527 8.37555176 12.43432617 9.01977539 C44.16537213 41.871655 57.23968015 86.10534375 56.50260925 130.94642639 C55.8640517 156.57562673 48.1558474 180.59044269 36 203 C35.07767578 204.75183594 35.07767578 204.75183594 34.13671875 206.5390625 C27.29555817 219.08827217 18.68374399 230.44736731 8.94921875 240.8984375 C7.20472294 242.77927667 5.56532432 244.70618031 3.9375 246.6875 C0.63231239 250.54953987 -3.07000265 253.78630758 -7 257 C-7.96035156 257.78632812 -8.92070313 258.57265625 -9.91015625 259.3828125 C-10.98033025 260.23618471 -12.05194796 261.08774955 -13.125 261.9375 C-14.09695313 262.70964844 -15.06890625 263.48179687 -16.0703125 264.27734375 C-26.56045914 271.8528277 -37.79016859 276.83396645 -49.9375 281.0625 C-51.50329374 281.61683455 -53.06904763 282.17128163 -54.63476562 282.72583008 C-90.74530582 295.42369352 -127.48602251 306.26749232 -164.16015625 317.19921875 C-165.25111099 317.52466675 -166.34206573 317.85011475 -167.46607971 318.1854248 C-169.56369496 318.80903227 -171.66223456 319.42954013 -173.76174927 320.04672241 C-176.08854082 320.73168427 -178.41268887 321.42564999 -180.7350769 322.12539673 C-181.9741983 322.49240692 -183.2133197 322.85941711 -184.48999023 323.23754883 C-186.17825172 323.74297966 -186.17825172 323.74297966 -187.90061951 324.25862122 C-190.76882863 324.94470329 -193.07107638 325.24692187 -196 325 C-197.67822266 323.79760742 -197.67822266 323.79760742 -199.1640625 322.10546875 C-199.72335449 321.48478516 -200.28264648 320.86410156 -200.85888672 320.22460938 C-201.73311279 319.21624023 -201.73311279 319.21624023 -202.625 318.1875 C-203.86824139 316.8045943 -205.11304933 315.42309543 -206.359375 314.04296875 C-206.97361328 313.35638184 -207.58785156 312.66979492 -208.22070312 311.96240234 C-214.68819779 304.82934498 -221.65963133 298.22221216 -229 292 C-229.88429688 291.21496094 -230.76859375 290.42992187 -231.6796875 289.62109375 C-277.46401859 249.32189037 -327.72931074 243.67437664 -387 247 C-395.67539964 247.55899328 -404.34003663 248.2397911 -413 249 C-412.43551542 242.32810584 -410.72995459 236.48596664 -408.5 230.1875 C-408.14687744 229.18428711 -407.79375488 228.18107422 -407.42993164 227.14746094 C-402.47181418 213.39387574 -396.50020995 199.95656009 -388 188 C-387.25943359 186.92685547 -387.25943359 186.92685547 -386.50390625 185.83203125 C-374.08541636 168.83015855 -357.05017192 156.42182546 -339 146 C-337.8759375 145.34386719 -336.751875 144.68773437 -335.59375 144.01171875 C-275.09765417 109.680601 -208.87215957 126.85652671 -145.8125 144 C-129.33110233 148.57886785 -113.08891397 153.96274041 -97.0625 159.9375 C-79.89390137 166.09188023 -60.09869188 166.17813303 -43.34594727 158.64233398 C-32.75883028 153.52450399 -28.92480672 148.21308161 -25.03515625 137.26953125 C-21.07747938 124.7692462 -20.09791435 111.64367176 -25.9375 99.5625 C-28.25252271 95.53394084 -31.19095431 93.01683105 -34.75 90.0625 C-40.72694736 84.83468485 -40.72694736 84.83468485 -41.375 80.125 C-40.97471979 54.34695459 -17.97605103 17.97605103 0 0 Z " fill="#FFFFFF" transform="translate(676,562)"/>
<path d="M0 0 C10.35087126 0.02386929 20.61578244 0.95501262 30.9140625 1.921875 C31.88174561 2.01080017 32.84942871 2.09972534 33.84643555 2.19134521 C71.86907546 5.71198917 71.86907546 5.71198917 79.2890625 10.171875 C80.39779939 38.53706051 52.43969328 76.12032364 38.2890625 100.171875 C31.43469685 99.65629977 24.96467209 98.55605651 18.3046875 96.87890625 C16.3933999 96.41118163 14.48210401 95.94349086 12.57080078 95.47583008 C11.58468811 95.23184479 10.59857544 94.9878595 9.58258057 94.73648071 C-9.42835639 90.03855089 -28.45732802 85.7508632 -47.7109375 82.171875 C-47.13130191 78.68918615 -46.24562562 75.88543839 -44.63232422 72.75 C-44.19982864 71.90206879 -43.76733307 71.05413757 -43.32173157 70.18051147 C-42.8494664 69.27016144 -42.37720123 68.3598114 -41.890625 67.421875 C-41.15364632 65.98347763 -41.15364632 65.98347763 -40.40177917 64.51602173 C-38.80244756 61.3982085 -37.19437887 58.28499696 -35.5859375 55.171875 C-34.48966637 53.03980092 -33.39388316 50.9074759 -32.29858398 48.77490234 C-29.60191833 43.52801396 -26.89806416 38.28486969 -24.19195557 33.04284668 C-22.43751078 29.64183395 -20.68791913 26.23834743 -18.93939209 22.83428955 C-17.21983518 19.4872331 -15.49687963 16.14193206 -13.7734375 12.796875 C-13.46138367 12.19037109 -13.14932983 11.58386719 -12.82781982 10.95898438 C-11.96929721 9.29191001 -11.10779446 7.62637134 -10.24609375 5.9609375 C-9.7756665 5.05037598 -9.30523926 4.13981445 -8.82055664 3.20166016 C-6.60953992 -0.84287075 -4.51241642 0.01478921 0 0 Z " fill="#FFFFFF" transform="translate(559.7109375,538.828125)"/>
</svg>
